<svg width="31" height="31" viewBox="0 0 31 31" fill="none" xmlns="http://www.w3.org/2000/svg">
<g clip-path="url(#clip0_9586_164562)">
<rect width="31" height="31" rx="15.5" fill="#1C1A1F"/>
<path d="M15.4991 2.54968e-08C18.5648 -0.000175774 21.5617 0.908755 24.1108 2.61185C26.6599 4.31494 28.6467 6.7357 29.82 9.56799C30.9932 12.4003 31.3003 15.5169 30.7022 18.5237C30.1042 21.5305 28.6279 24.2924 26.4601 26.4602C24.2924 28.6279 21.5305 30.1042 18.5237 30.7022C15.5169 31.3003 12.4003 30.9932 9.56799 29.82C6.7357 28.6467 4.31494 26.6599 2.61185 24.1108C0.908755 21.5617 -0.000175774 18.5648 2.54968e-08 15.4991C2.54967e-08 13.4637 0.400899 11.4483 1.1798 9.56785C1.95871 7.68742 3.10036 5.97881 4.53958 4.53958C5.97881 3.10036 7.68742 1.9587 9.56786 1.1798C11.4483 0.400896 13.4637 2.54968e-08 15.4991 2.54968e-08ZM10.4424 15.4991C10.4424 22.9896 15.4991 29.0614 15.4991 29.0614C15.4991 29.0614 20.5559 22.9896 20.5559 15.4991C20.5559 8.00866 15.4991 1.93772 15.4991 1.93772C15.4991 1.93772 10.4424 8.00955 10.4424 15.4991Z" fill="#4FFFB0"/>
</g>
<defs>
<clipPath id="clip0_9586_164562">
<rect width="31" height="31" rx="15.5" fill="white"/>
</clipPath>
</defs>
</svg>
