<svg width="134" height="42" viewBox="0 0 134 42" fill="none" xmlns="http://www.w3.org/2000/svg">
<path d="M22.6661 5C25.7648 4.99982 28.7939 5.93151 31.3705 7.67726C33.947 9.423 35.9553 11.9044 37.1412 14.8076C38.3271 17.7108 38.6374 20.9055 38.0329 23.9876C37.4284 27.0696 35.9363 29.9007 33.7452 32.1228C31.554 34.3448 28.7624 35.858 25.7232 36.4711C22.684 37.0841 19.5339 36.7694 16.6711 35.5667C13.8083 34.3641 11.3614 32.3275 9.63998 29.7146C7.91854 27.1016 6.99982 24.0297 7 20.8872C7 18.8009 7.40522 16.735 8.19251 14.8075C8.9798 12.8799 10.1338 11.1285 11.5885 9.65326C13.0432 8.178 14.7702 7.00775 16.6709 6.20934C18.5716 5.41094 20.6088 5 22.6661 5V5ZM17.5548 20.8872C17.5548 28.5653 22.6661 34.7891 22.6661 34.7891C22.6661 34.7891 27.7773 28.5653 27.7773 20.8872C27.7773 13.2092 22.6661 6.98625 22.6661 6.98625C22.6661 6.98625 17.5548 13.2101 17.5548 20.8872V20.8872Z" fill="white"/>
<path d="M48.8906 22.6539V10.2963H57.5938V12.0621H59.335V15.5918H57.5938V17.3575H59.335V20.8881H57.5938V22.6539H48.8906ZM52.3703 15.5918H55.8517V12.0621H52.3703V15.5918ZM55.8517 17.3575H52.3703V20.8881H55.8517V17.3575Z" fill="white"/>
<path d="M62.8145 20.8881H61.0742V15.5917H62.8145V13.8269H71.5177V22.6539H62.8145V20.8881ZM64.5548 20.8881H68.0371V15.5917H64.5548V20.8881Z" fill="white"/>
<path d="M83.7031 22.6539H73.2587V20.8881H80.2207V19.1233H73.2578V13.8269H83.7021V15.5917H76.7393V17.3575H83.7021L83.7031 22.6539Z" fill="white"/>
<path d="M85.4453 12.0621V10.2963H88.9267V12.0621H85.4453ZM85.4453 22.6539V13.8269H88.9267V22.6539H85.4453Z" fill="white"/>
<path d="M94.1485 22.6539H90.668V10.2963H94.1485V22.6539Z" fill="white"/>
<path d="M95.8906 12.0621V10.2963H99.3721V12.0621H95.8906ZM95.8906 22.6539V13.8269H99.3721V22.6539H95.8906Z" fill="white"/>
<path d="M111.554 22.6539H101.109V20.8881H108.072V19.1233H101.109V13.8269H111.554V15.5917H104.591V17.3575H111.554V22.6539Z" fill="white"/>
<path d="M120.26 20.8881H122V22.6539H118.519V20.8881H116.778V22.6539H113.297V10.2963H116.778V15.5918H118.519V13.8269H122V15.5918H120.26V17.3575H118.519V19.1233H120.26V20.8881Z" fill="white"/>
<path d="M55.6335 27.5074H54.3281V28.8313H55.6335V27.5074Z" fill="white"/>
<path d="M56.9383 27.5074H55.6328V28.8313H56.9383V27.5074Z" fill="white"/>
<path d="M58.2468 27.5074H56.9414V28.8313H58.2468V27.5074Z" fill="white"/>
<path d="M56.9383 28.8313H55.6328V30.1552H56.9383V28.8313Z" fill="white"/>
<path d="M58.2468 28.8313H56.9414V30.1552H58.2468V28.8313Z" fill="white"/>
<path d="M59.5476 28.8313H58.2422V30.1552H59.5476V28.8313Z" fill="white"/>
<path d="M50.4109 27.5074H49.1055V28.8313H50.4109V27.5074Z" fill="white"/>
<path d="M51.7156 27.5074H50.4102V28.8313H51.7156V27.5074Z" fill="white"/>
<path d="M53.0203 27.5074H51.7148V28.8313H53.0203V27.5074Z" fill="white"/>
<path d="M51.7156 28.8313H50.4102V30.1552H51.7156V28.8313Z" fill="white"/>
<path d="M53.0203 28.8313H51.7148V30.1552H53.0203V28.8313Z" fill="white"/>
<path d="M54.325 28.8313H53.0195V30.1552H54.325V28.8313Z" fill="white"/>
<path d="M60.8562 27.5074H59.5508V28.8313H60.8562V27.5074Z" fill="white"/>
<path d="M62.1609 27.5074H60.8555V28.8313H62.1609V27.5074Z" fill="white"/>
<path d="M63.4656 27.5074H62.1602V28.8313H63.4656V27.5074Z" fill="white"/>
<path d="M62.1609 28.8313H60.8555V30.1552H62.1609V28.8313Z" fill="white"/>
<path d="M63.4656 28.8313H62.1602V30.1552H63.4656V28.8313Z" fill="white"/>
<path d="M64.7703 28.8313H63.4648V30.1552H64.7703V28.8313Z" fill="white"/>
<path d="M66.075 27.5074H64.7695V28.8313H66.075V27.5074Z" fill="white"/>
<path d="M67.3797 27.5074H66.0742V28.8313H67.3797V27.5074Z" fill="white"/>
<path d="M68.6843 27.5074H67.3789V28.8313H68.6843V27.5074Z" fill="white"/>
<path d="M67.3797 28.8313H66.0742V30.1552H67.3797V28.8313Z" fill="white"/>
<path d="M68.6843 28.8313H67.3789V30.1552H68.6843V28.8313Z" fill="white"/>
<path d="M69.989 28.8313H68.6836V30.1552H69.989V28.8313Z" fill="white"/>
<path d="M71.2976 27.5074H69.9922V28.8313H71.2976V27.5074Z" fill="white"/>
<path d="M72.6023 27.5074H71.2969V28.8313H72.6023V27.5074Z" fill="white"/>
<path d="M73.907 27.5074H72.6016V28.8313H73.907V27.5074Z" fill="white"/>
<path d="M72.6023 28.8313H71.2969V30.1552H72.6023V28.8313Z" fill="white"/>
<path d="M73.907 28.8313H72.6016V30.1552H73.907V28.8313Z" fill="white"/>
<path d="M75.2117 28.8313H73.9062V30.1552H75.2117V28.8313Z" fill="white"/>
<path d="M76.5203 27.5074H75.2148V28.8313H76.5203V27.5074Z" fill="white"/>
<path d="M77.825 27.5074H76.5195V28.8313H77.825V27.5074Z" fill="white"/>
<path d="M79.1297 27.5074H77.8242V28.8313H79.1297V27.5074Z" fill="white"/>
<path d="M77.825 28.8313H76.5195V30.1552H77.825V28.8313Z" fill="white"/>
<path d="M79.1297 28.8313H77.8242V30.1552H79.1297V28.8313Z" fill="white"/>
<path d="M80.4343 28.8313H79.1289V30.1552H80.4343V28.8313Z" fill="white"/>
<path d="M81.7429 27.5074H80.4375V28.8313H81.7429V27.5074Z" fill="white"/>
<path d="M83.0476 27.5074H81.7422V28.8313H83.0476V27.5074Z" fill="white"/>
<path d="M84.3562 27.5074H83.0508V28.8313H84.3562V27.5074Z" fill="white"/>
<path d="M83.0476 28.8313H81.7422V30.1552H83.0476V28.8313Z" fill="white"/>
<path d="M84.3562 28.8313H83.0508V30.1552H84.3562V28.8313Z" fill="white"/>
<path d="M85.657 28.8313H84.3516V30.1552H85.657V28.8313Z" fill="white"/>
<path d="M86.9656 27.5074H85.6602V28.8313H86.9656V27.5074Z" fill="white"/>
<path d="M88.2703 27.5074H86.9648V28.8313H88.2703V27.5074Z" fill="white"/>
<path d="M89.575 27.5074H88.2695V28.8313H89.575V27.5074Z" fill="white"/>
<path d="M88.2703 28.8313H86.9648V30.1552H88.2703V28.8313Z" fill="white"/>
<path d="M89.575 28.8313H88.2695V30.1552H89.575V28.8313Z" fill="white"/>
<path d="M90.8796 28.8313H89.5742V30.1552H90.8796V28.8313Z" fill="white"/>
<path d="M92.1882 27.5074H90.8828V28.8313H92.1882V27.5074Z" fill="white"/>
<path d="M93.4929 27.5074H92.1875V28.8313H93.4929V27.5074Z" fill="white"/>
<path d="M94.7976 27.5074H93.4922V28.8313H94.7976V27.5074Z" fill="white"/>
<path d="M93.4929 28.8313H92.1875V30.1552H93.4929V28.8313Z" fill="white"/>
<path d="M94.7976 28.8313H93.4922V30.1552H94.7976V28.8313Z" fill="white"/>
<path d="M96.1023 28.8313H94.7969V30.1552H96.1023V28.8313Z" fill="white"/>
<path d="M97.4109 27.5074H96.1055V28.8313H97.4109V27.5074Z" fill="white"/>
<path d="M98.7156 27.5074H97.4102V28.8313H98.7156V27.5074Z" fill="white"/>
<path d="M100.02 27.5074H98.7148V28.8313H100.02V27.5074Z" fill="white"/>
<path d="M98.7156 28.8313H97.4102V30.1552H98.7156V28.8313Z" fill="white"/>
<path d="M100.02 28.8313H98.7148V30.1552H100.02V28.8313Z" fill="white"/>
<path d="M101.325 28.8313H100.02V30.1552H101.325V28.8313Z" fill="white"/>
<path d="M102.634 27.5075H101.328V28.8314H102.634V27.5075Z" fill="white"/>
<path d="M103.938 27.5075H102.633V28.8314H103.938V27.5075Z" fill="white"/>
<path d="M106.548 27.5075H105.242V28.8314H106.548V27.5075Z" fill="white"/>
<path d="M105.243 26.1836H103.938V27.5074H105.243V26.1836Z" fill="white"/>
<path d="M103.938 28.8313H102.633V30.1552H103.938V28.8313Z" fill="white"/>
<path d="M105.243 28.8313H103.938V30.1552H105.243V28.8313Z" fill="white"/>
<path d="M106.548 28.8313H105.242V30.1552H106.548V28.8313Z" fill="white"/>
<path d="M107.856 27.5075H106.551V28.8314H107.856V27.5075Z" fill="white"/>
<path d="M107.856 28.8313H106.551V30.1552H107.856V28.8313Z" fill="white"/>
<path d="M115.684 26.1836H114.379V27.5074H115.684V26.1836Z" fill="white"/>
<path d="M114.38 28.8314H113.074V30.1552H114.38V28.8314Z" fill="white"/>
<path d="M113.074 27.5075V28.8314H114.38V27.5075H113.074Z" fill="white"/>
<path d="M115.688 26.1836V27.5075H116.993V26.1836H115.688Z" fill="white"/>
<path d="M116.988 28.8304H118.293V27.5066H116.988V28.8304Z" fill="white"/>
<path d="M118.293 30.1552V28.8314H116.988V30.1552H118.293Z" fill="white"/>
<path d="M116.988 31.4791V30.1553H115.683V31.4791H116.988Z" fill="white"/>
<path d="M115.684 31.4791V30.1553H114.378V31.4791H115.684Z" fill="white"/>
</svg>
