<svg width="38" height="38" viewBox="0 0 38 38" fill="none" xmlns="http://www.w3.org/2000/svg">
<path d="M18.6661 3C21.7648 2.99982 24.7939 3.93151 27.3705 5.67726C29.947 7.423 31.9553 9.90438 33.1412 12.8076C34.3271 15.7108 34.6374 18.9055 34.0329 21.9876C33.4284 25.0696 31.9363 27.9007 29.7452 30.1228C27.554 32.3448 24.7624 33.858 21.7232 34.4711C18.684 35.0841 15.5339 34.7694 12.6711 33.5667C9.80826 32.3641 7.36142 30.3275 5.63998 27.7146C3.91854 25.1016 2.99982 22.0297 3 18.8872C3 16.8009 3.40522 14.735 4.19251 12.8075C4.9798 10.8799 6.13375 9.12853 7.58848 7.65326C9.04321 6.178 10.7702 5.00775 12.6709 4.20934C14.5716 3.41094 16.6088 3 18.6661 3V3ZM13.5548 18.8872C13.5548 26.5653 18.6661 32.7891 18.6661 32.7891C18.6661 32.7891 23.7773 26.5653 23.7773 18.8872C23.7773 11.2092 18.6661 4.98625 18.6661 4.98625C18.6661 4.98625 13.5548 11.2101 13.5548 18.8872V18.8872Z" fill="#4FFFB0"/>
</svg>
